#!OML:ASF X:\für Bonn\!DataBase\2005_08_12_Daniel\c3d\Daniel.ASF
:FULLY-SPECIFIED
:DEGREES
77
root 3.16566 17.4391 -20.0547 173.916 175.878 -182.632
lowerback 40.3357 -0.644659 5.2105
upperback 14.6189 1.08174 -1.84659
thorax -3.05714 0.876831 -5.02777
lowerneck 8.15454 -1.53793 -4.85477
upperneck 11.3992 -2.19495 -0.681527
head 2.28282 -1.25325 0.608545
rclavicle -3.44891e-014 3.96575e-014
rhumerus 11.4776 -27.6045 -91.8208
rradius 10.6766
rwrist 38.3496
rhand -20.2111 15.384
rfingers 7.12502
rthumb 6.13605 -14.5072
lclavicle -3.44891e-014 3.96575e-014
lhumerus -23.4922 -1.72557 90.5304
lradius 62.7118
lwrist 1.11519
lhand -13.8493 -9.15876
lfingers 7.12502
lthumb 12.2744 20.461
rfemur -18.2557 0.147568 14.4775
rtibia 34.551
rfoot -9.82654 -0.852079
rtoes -6.27018
lfemur -22.6575 -6.51691 -18.7585
ltibia 37.9218
lfoot -8.33965 -0.0956103
ltoes -6.30583
78
root 3.15273 17.4488 -20.0322 174.105 175.433 -182.466
lowerback 41.0109 -0.760418 5.33716
upperback 14.7503 1.03342 -1.84299
thorax -3.11071 0.867418 -5.0724
lowerneck 8.15863 -1.70381 -4.79495
upperneck 11.1682 -2.41392 -0.654104
head 2.20957 -1.35292 0.608746
rclavicle 2.74323e-014 -1.73937e-014
rhumerus 12.4525 -28.6263 -92.2413
rradius 10.4653
rwrist 39.237
rhand -20.127 15.45
rfingers 7.12502
rthumb 6.21716 -14.4388
lclavicle 2.74323e-014 -1.73937e-014
lhumerus -23.4335 -2.09463 90.6645
lradius 63.6961
lwrist 1.34623
lhand -13.7718 -9.32756
lfingers 7.12502
lthumb 12.3491 20.2877
rfemur -18.452 1.02246 14.0332
rtibia 33.422
rfoot -9.2943 -2.12883
rtoes -5.69949
lfemur -22.7531 -6.57718 -18.9608
ltibia 37.7664
lfoot -8.26797 -0.427615
ltoes -6.38551
79
root 3.13725 17.4598 -20.0103 174.292 175.009 -182.296
lowerback 41.6859 -0.853857 5.45433
upperback 14.8831 1.01152 -1.83328
thorax -3.15506 0.870845 -5.11442
lowerneck 8.20659 -1.8919 -4.65103
upperneck 10.8773 -2.65584 -0.692162
head 2.10705 -1.46082 0.574875
rclavicle -1.66482e-015 -4.96962e-017
rhumerus 13.3661 -29.2513 -92.5264
rradius 10.3018
rwrist 39.6396
rhand -20.0313 15.4581
rfingers 7.12502
rthumb 6.3096 -14.428
lclavicle -1.66482e-015 -4.96962e-017
lhumerus -23.3853 -2.43219 90.8035
lradius 64.6087
lwrist 1.60179
lhand -13.7066 -9.54541
lfingers 7.12502
lthumb 12.412 20.0661
rfemur -18.6709 1.93701 13.578
rtibia 32.4197
rfoot -8.70524 -3.45866
rtoes -5.29872
lfemur -22.8297 -6.60019 -19.1578
ltibia 37.5767
lfoot -8.16155 -0.747474
ltoes -6.42071
80
root 3.11997 17.4672 -19.9904 174.495 174.602 -182.129
lowerback 42.3509 -0.947996 5.6228
upperback 15.0201 1.00896 -1.842
thorax -3.18335 0.887951 -5.20893
lowerneck 8.21498 -2.08922 -4.53861
upperneck 10.6309 -2.91419 -0.641505
head 2.02865 -1.57774 0.57449
rclavicle -2.78795e-014 2.09718e-014
rhumerus 14.3555 -30.107 -92.8909
rradius 10.1029
rwrist 40.2752
rhand -19.9011 15.4458
rfingers 7.12502
rthumb 6.43529 -14.4365
lclavicle -2.78795e-014 2.09718e-014
lhumerus -23.3581 -2.85169 90.9166
lradius 65.5264
lwrist 1.89088
lhand -13.6515 -9.79947
lfingers 7.12502
lthumb 12.4651 19.8088
rfemur -18.9114 2.90491 13.1139
rtibia 31.5169
rfoot -8.13909 -4.82576
rtoes -4.77464
lfemur -22.9433 -6.65193 -19.3327
ltibia 37.4066
lfoot -8.05427 -1.04833
ltoes -6.43786
81
root 3.09994 17.47 -19.9709 174.692 174.198 -181.941
lowerback 43.0233 -1.0241 5.72853
upperback 15.1608 1.00878 -1.82979
thorax -3.20618 0.903107 -5.24926
lowerneck 8.22447 -2.29697 -4.37347
upperneck 10.3903 -3.17688 -0.678405
head 1.94935 -1.69653 0.537848
rclavicle -8.44835e-015 -1.02871e-014
rhumerus 15.2799 -30.3858 -93.0759
rradius 9.90717
rwrist 40.3081
rhand -19.7646 15.4243
rfingers 7.12502
rthumb 6.56707 -14.4539
lclavicle -8.44835e-015 -1.02871e-014
lhumerus -23.3291 -3.2322 91.0142
lradius 66.3747
lwrist 2.22838
lhand -13.5738 -10.0618
lfingers 7.12502
lthumb 12.5401 19.5419
rfemur -19.1228 3.83943 12.6342
rtibia 30.7059
rfoot -7.55259 -6.18137
rtoes -4.19301
lfemur -23.0824 -6.6779 -19.5213
ltibia 37.2972
lfoot -7.97158 -1.3842
ltoes -6.51185
82
root 3.07799 17.4682 -19.9524 174.917 173.829 -181.736
lowerback 43.6919 -1.09158 5.85016
upperback 15.2815 1.02378 -1.85485
thorax -3.24306 0.927624 -5.34337
lowerneck 8.30085 -2.50723 -4.19072
upperneck 10.1056 -3.4487 -0.662664
head 1.8453 -1.81805 0.516503
rclavicle -1.98785e-014 6.63941e-014
rhumerus 16.1551 -30.732 -93.2315
rradius 9.74242
rwrist 40.3549
rhand -19.6441 15.3884
rfingers 7.12502
rthumb 6.68339 -14.4861
lclavicle -1.98785e-014 6.63941e-014
lhumerus -23.3361 -3.65598 91.0501
lradius 67.1761
lwrist 2.54637
lhand -13.5309 -10.2384
lfingers 7.12502
lthumb 12.5814 19.3627
rfemur -19.3386 4.78003 12.1449
rtibia 29.9873
rfoot -7.04928 -7.50187
rtoes -3.80647
lfemur -23.2933 -6.76344 -19.7072
ltibia 37.2587
lfoot -7.93662 -1.62424
ltoes -6.5215
83
root 3.0551 17.4656 -19.9357 175.13 173.488 -181.566
lowerback 44.389 -1.15404 5.96611
upperback 15.4169 1.04894 -1.84125
thorax -3.26466 0.955654 -5.39642
lowerneck 8.28772 -2.71382 -4.07368
upperneck 9.8808 -3.71419 -0.647621
head 1.77714 -1.94019 0.504839
rclavicle 2.72335e-014 -2.38542e-014
rhumerus 17.0682 -31.027 -93.3667
rradius 9.59223
rwrist 40.471
rhand -19.504 15.367
rfingers 7.12502
rthumb 6.8186 -14.5032
lclavicle 2.72335e-014 -2.38542e-014
lhumerus -23.2981 -3.99573 91.1287
lradius 67.9093
lwrist 2.86651
lhand -13.4604 -10.3806
lfingers 7.12502
lthumb 12.6494 19.2163
rfemur -19.5218 5.67544 11.7132
rtibia 29.3909
rfoot -6.64764 -8.74375
rtoes -3.64578
lfemur -23.5179 -6.84613 -19.8442
ltibia 37.2685
lfoot -7.91126 -1.82928
ltoes -6.55667
84
root 3.03101 17.4602 -19.9195 175.376 173.167 -181.339
lowerback 45.1183 -1.20016 6.06255
upperback 15.5011 1.08799 -1.85314
thorax -3.34535 0.987922 -5.47314
lowerneck 8.4067 -2.91916 -3.93772
upperneck 9.58996 -3.98454 -0.606455
head 1.66616 -2.0628 0.500995
rclavicle -3.4191e-014 9.74045e-015
rhumerus 17.8527 -31.3856 -93.4403
rradius 9.55779
rwrist 40.5772
rhand -19.2957 15.398
rfingers 7.12502
rthumb 7.01967 -14.4656
lclavicle -3.4191e-014 9.74045e-015
lhumerus -23.2814 -4.38919 91.1824
lradius 68.5169
lwrist 3.16684
lhand -13.4497 -10.4461
lfingers 7.12502
lthumb 12.6596 19.1502
rfemur -19.7196 6.52189 11.2443
rtibia 28.9345
rfoot -6.42765 -9.90105
rtoes -3.86759
lfemur -23.7883 -6.942 -20.0312
ltibia 37.3115
lfoot -7.90022 -2.02976
ltoes -6.63011
85
root 3.00515 17.4556 -19.905 175.606 172.841 -181.15
lowerback 45.8871 -1.27001 6.21572
upperback 15.5874 1.12731 -1.86545
thorax -3.42518 1.02344 -5.57909
lowerneck 8.47007 -3.12913 -3.81681
upperneck 9.34932 -4.2593 -0.538293
head 1.58202 -2.18898 0.507487
rclavicle 2.50469e-014 -5.96354e-016
rhumerus 18.7171 -31.7547 -93.5728
rradius 9.46209
rwrist 40.7299
rhand -19.1308 15.4277
rfingers 7.12502
rthumb 7.17885 -14.4306
lclavicle 2.50469e-014 -5.96354e-016
lhumerus -23.2209 -4.74621 91.2199
lradius 69.0361
lwrist 3.41307
lhand -13.3464 -10.4119
lfingers 7.12502
lthumb 12.7593 19.1782
rfemur -19.9147 7.15864 10.8782
rtibia 28.6519
rfoot -6.28639 -10.856
rtoes -4.64355
lfemur -24.0582 -7.08412 -20.1659
ltibia 37.3645
lfoot -7.90688 -2.18744
ltoes -6.72403
86
root 2.97894 17.4507 -19.8906 175.842 172.512 -180.945
lowerback 46.6756 -1.35325 6.38097
upperback 15.6716 1.15923 -1.89576
thorax -3.50582 1.05762 -5.70757
lowerneck 8.50004 -3.33942 -3.61729
upperneck 9.11604 -4.52466 -0.519662
head 1.50229 -2.3092 0.485248
rclavicle -7.15625e-015 2.14687e-014
rhumerus 19.6271 -32.1393 -93.7478
rradius 9.36269
rwrist 40.8835
rhand -18.9773 15.4544
rfingers 7.12502
rthumb 7.32711 -14.3987
lclavicle -7.15625e-015 2.14687e-014
lhumerus -23.1587 -5.07375 91.2422
lradius 69.5143
lwrist 3.6031
lhand -13.2842 -10.2513
lfingers 7.12502
lthumb 12.8193 19.3351
rfemur -20.1342 7.52248 10.5593
rtibia 28.5499
rfoot -6.21251 -11.6155
rtoes -5.48378
lfemur -24.3305 -7.20469 -20.3234
ltibia 37.4147
lfoot -7.87681 -2.36731
ltoes -6.87592
